<svg version="1.1" id="Layer_1" xmlns="http://www.w3.org/2000/svg" xmlns:xlink="http://www.w3.org/1999/xlink" x="0px" y="0px"
	 width="100%" viewBox="0 0 405 180" enable-background="new 0 0 405 180" xml:space="preserve">

<path fill="#EBEBEB" opacity="1.000000" stroke="none" 
	d="
M406.000000,10.513435 
	C404.706757,5.997182 401.325562,2.931815 396.360840,1.000500 
	C399.252441,1.000000 402.504913,1.000000 406.000000,1.000000 
	C406.000000,4.006597 406.000000,7.016734 406.000000,10.513435 
z"/>
<path fill="#FDFDFD" opacity="1.000000" stroke="none" 
	d="
M287.899628,109.880585 
	C272.608917,109.911346 257.317139,110.064217 242.027939,109.927345 
	C232.765472,109.844437 227.294510,104.218063 227.053421,94.944664 
	C226.923874,89.961296 226.918549,84.968674 227.056015,79.985703 
	C227.311035,70.741745 232.807877,65.170860 242.099869,65.072281 
	C257.058868,64.913567 272.020599,65.013702 287.486267,65.500153 
	C287.981140,68.648117 287.970947,71.300423 287.590149,73.912292 
	C278.058838,70.457733 271.285156,73.683144 271.123077,82.581848 
	C273.203247,81.675331 275.581390,81.390518 276.514191,80.078293 
	C278.546021,77.220001 280.880859,76.085663 283.597656,78.146744 
	C286.528107,80.369965 285.371307,83.218628 283.243408,85.480225 
	C280.048401,88.875946 276.544952,91.990105 273.466034,95.482613 
	C272.060425,97.076988 271.355042,99.288666 269.848816,102.132935 
	C276.918427,102.132935 282.402496,102.132935 287.937561,102.560577 
	C287.958893,105.285683 287.929260,107.583130 287.899628,109.880585 
M257.102905,77.975815 
	C258.021912,78.021332 258.940918,78.066856 260.472717,78.142723 
	C256.318146,86.247520 252.430740,93.831146 248.519379,101.461502 
	C252.912292,103.078232 255.150330,101.614838 256.827728,97.742043 
	C259.389740,91.826851 262.641907,86.213806 265.330902,80.348625 
	C266.283051,78.271759 266.444275,75.832275 267.043182,73.224838 
	C259.545197,73.224838 252.964630,73.224838 246.167908,73.224838 
	C246.167908,74.798553 246.167908,76.188744 246.167908,77.975914 
	C249.617264,77.975914 252.904709,77.975914 257.102905,77.975815 
z"/>
<path fill="#7E7E7E" opacity="1.000000" stroke="none" 
	d="
M288.366852,109.929855 
	C287.929260,107.583130 287.958893,105.285683 288.354004,102.523743 
	C289.775208,101.089447 290.830963,100.119629 291.886719,99.149811 
	C290.568146,98.407181 289.249573,97.664543 287.978210,96.467407 
	C288.014069,93.540802 288.002686,91.068695 288.105164,88.274780 
	C292.394562,82.038185 292.340393,79.101112 287.960724,73.952721 
	C287.970947,71.300423 287.981140,68.648117 287.945496,65.557327 
	C291.049988,65.102928 294.208588,64.932732 297.349182,65.100494 
	C306.224518,65.574593 311.445343,70.712570 311.881897,79.567497 
	C312.126678,84.533081 312.079193,89.523613 311.929596,94.495865 
	C311.630554,104.436241 306.327118,109.625641 296.299591,109.955650 
	C293.813507,110.037468 291.322723,109.975166 288.366852,109.929855 
z"/>
<path fill="#F1F1F1" opacity="1.000000" stroke="none" 
	d="
M175.658676,83.814240 
	C178.698822,76.185974 183.277771,73.178291 190.668747,73.689751 
	C197.163101,74.139153 200.843140,77.240082 201.731186,84.794540 
	C199.984802,83.620667 198.347092,82.217010 196.466187,81.327644 
	C193.754608,80.045479 190.852249,78.218719 188.056595,78.261909 
	C182.420914,78.348961 179.368057,84.094086 180.007812,91.977638 
	C180.538406,98.516006 184.254211,102.385735 189.835419,102.212372 
	C194.901627,102.055000 197.368011,99.552475 197.769424,94.162148 
	C190.311066,92.955452 190.311066,92.955452 190.266190,89.838142 
	C194.355286,89.838142 198.444092,89.838142 202.523071,89.838142 
	C204.073959,99.409279 199.888016,105.616173 191.191284,106.734940 
	C182.645370,107.834290 175.609329,102.030083 174.972778,93.060547 
	C174.764557,90.126572 175.310410,87.139076 175.658676,83.814240 
z"/>
<path fill="#EBEBEB" opacity="1.000000" stroke="none" 
	d="
M151.894699,104.263771 
	C150.470322,102.139076 149.330673,100.251900 148.191025,98.364723 
	C148.604233,97.883568 149.017426,97.402420 149.430618,96.921272 
	C150.958588,97.811554 152.800858,98.410088 153.952042,99.650162 
	C156.729431,102.642006 159.789062,103.574425 163.165192,101.222214 
	C166.313690,99.028587 166.971649,95.816353 165.024658,92.444878 
	C163.052551,89.029922 159.034821,88.318268 155.454849,90.428665 
	C153.639832,91.498627 151.737473,92.420425 148.875290,93.939621 
	C149.477112,86.645958 149.963776,80.748039 150.478256,74.512970 
	C156.631516,74.512970 162.512924,74.512970 168.796753,74.512970 
	C168.852875,75.628235 168.914688,76.857170 168.998978,78.532326 
	C164.128098,78.532326 159.526764,78.532326 154.372787,78.532326 
	C154.171539,81.635254 153.995575,84.348251 153.808807,87.227898 
	C162.378510,83.891548 167.931351,85.564209 170.146881,91.971649 
	C171.781036,96.697701 170.866150,101.018341 166.982101,104.128296 
	C162.309021,107.870010 157.199570,107.711967 151.894699,104.263771 
z"/>
<path fill="#323232" opacity="1.000000" stroke="none" 
	d="
M112.999588,72.259392 
	C112.727234,67.826736 113.499313,64.940895 118.493439,64.937164 
	C123.483215,64.933441 124.142250,67.805649 124.033424,71.780495 
	C123.897057,76.761261 123.944611,81.749329 124.015488,86.732780 
	C124.070038,90.568268 122.183937,92.042603 118.477180,92.041969 
	C114.738739,92.041336 112.925392,90.485901 112.984894,86.682938 
	C113.057663,82.031906 113.000465,77.378853 112.999588,72.259392 
z"/>
<path fill="#FBFBFB" opacity="1.000000" stroke="none" 
	d="
M106.006004,76.277679 
	C105.997772,80.383781 105.975121,84.023041 105.984261,87.662209 
	C105.994263,91.642563 103.392525,92.040443 100.276711,92.033539 
	C97.241600,92.026833 95.009987,91.306885 95.013939,87.707207 
	C95.018295,83.737144 95.118683,79.762383 94.960381,75.798332 
	C94.808098,71.984962 95.991150,69.960251 100.260147,69.909988 
	C104.596214,69.858925 106.402145,71.589005 106.006004,76.277679 
z"/>
<path fill="#FAFAFA" opacity="1.000000" stroke="none" 
	d="
M88.008865,82.128799 
	C88.007126,83.908562 87.922401,85.237251 88.019089,86.552605 
	C88.319870,90.644592 86.390518,92.082428 82.400986,92.085220 
	C78.255058,92.088120 76.687531,90.290749 76.975090,86.353180 
	C77.083176,84.873199 77.034248,83.377129 76.982430,81.890991 
	C76.853447,78.191833 76.868187,75.005630 82.143616,74.891464 
	C87.327827,74.779259 88.417313,77.371376 88.008865,82.128799 
z"/>
<path fill="#F8F8F8" opacity="1.000000" stroke="none" 
	d="
M66.631279,79.079643 
	C69.755806,81.064606 71.657150,87.582970 69.368927,89.823166 
	C67.755798,91.402443 64.208580,92.209869 61.934559,91.661888 
	C57.078278,90.491669 59.102757,85.967880 59.146248,82.842117 
	C59.213852,77.982819 63.214710,79.178108 66.631279,79.079643 
z"/>
<path fill="#F8F8F8" opacity="1.000000" stroke="none" 
	d="
M105.986145,105.716850 
	C105.683464,110.257378 102.630852,110.345024 99.827576,109.885345 
	C98.176361,109.614586 95.519470,108.276611 95.410698,107.205719 
	C95.130806,104.450287 95.111504,100.704948 96.725792,99.024200 
	C98.026192,97.670250 102.185081,98.036636 104.447556,99.046761 
	C105.652161,99.584564 105.523865,103.107826 105.986145,105.716850 
z"/>
<path fill="#F8F8F8" opacity="1.000000" stroke="none" 
	d="
M77.066185,101.424866 
	C79.086884,98.136330 84.794678,96.411987 86.172714,98.790268 
	C87.621246,101.290184 88.279236,105.398994 87.156548,107.818001 
	C86.452591,109.334793 81.475433,110.019714 79.098305,109.169327 
	C77.710686,108.672913 77.668144,104.416634 77.066185,101.424866 
z"/>
<path fill="#F8F8F8" opacity="1.000000" stroke="none" 
	d="
M59.232086,100.578918 
	C62.046066,96.664627 66.301163,96.913780 68.414375,99.151085 
	C70.090912,100.926079 69.861145,105.384361 69.022377,108.220863 
	C68.683678,109.366264 64.442162,109.830940 62.036110,109.677071 
	C60.954235,109.607887 59.613934,107.393898 59.129250,105.911667 
	C58.644493,104.429237 59.081318,102.645447 59.232086,100.578918 
z"/>
<path fill="#323232" opacity="1.000000" stroke="none" 
	d="
M123.983971,105.685226 
	C122.848946,111.139893 118.878273,110.669594 115.701286,109.538864 
	C111.548515,108.060860 112.589767,103.879272 113.376198,100.879555 
	C114.388138,97.019707 118.125008,97.607521 120.941368,98.259460 
	C124.623154,99.111748 123.976799,102.472313 123.983971,105.685226 
z"/>
<path fill="#797979" opacity="1.000000" stroke="none" 
	d="
M320.008240,87.911659 
	C318.980591,90.388840 317.957825,92.447571 316.935089,94.506310 
	C316.393402,94.272728 315.851746,94.039146 315.310059,93.805573 
	C315.310059,89.623680 315.310059,85.441780 315.310059,81.001831 
	C319.359985,81.604752 320.048767,84.285095 320.008240,87.911659 
z"/>
<path fill="#0C0C0C" opacity="1.000000" stroke="none" 
	d="
M287.590149,73.912292 
	C292.340393,79.101112 292.394562,82.038185 287.768799,88.386375 
	C284.634613,91.280098 281.950623,93.740425 278.479950,96.921906 
	C282.646942,96.921906 285.288971,96.921906 287.931000,96.921906 
	C289.249573,97.664543 290.568146,98.407181 291.886719,99.149811 
	C290.830963,100.119629 289.775208,101.089447 288.303040,102.096100 
	C282.402496,102.132935 276.918427,102.132935 269.848816,102.132935 
	C271.355042,99.288666 272.060425,97.076988 273.466034,95.482613 
	C276.544952,91.990105 280.048401,88.875946 283.243408,85.480225 
	C285.371307,83.218628 286.528107,80.369965 283.597656,78.146744 
	C280.880859,76.085663 278.546021,77.220001 276.514191,80.078293 
	C275.581390,81.390518 273.203247,81.675331 271.123077,82.581848 
	C271.285156,73.683144 278.058838,70.457733 287.590149,73.912292 
z"/>
<path fill="#0B0B0B" opacity="1.000000" stroke="none" 
	d="
M256.647522,77.975861 
	C252.904709,77.975914 249.617264,77.975914 246.167908,77.975914 
	C246.167908,76.188744 246.167908,74.798553 246.167908,73.224838 
	C252.964630,73.224838 259.545197,73.224838 267.043182,73.224838 
	C266.444275,75.832275 266.283051,78.271759 265.330902,80.348625 
	C262.641907,86.213806 259.389740,91.826851 256.827728,97.742043 
	C255.150330,101.614838 252.912292,103.078232 248.519379,101.461502 
	C252.430740,93.831146 256.318146,86.247520 260.472717,78.142723 
	C258.940918,78.066856 258.021912,78.021332 256.647522,77.975861 
z"/>
<path fill="#F3F3F3" opacity="1.000000" stroke="none" 
	d="
M287.978210,96.467407 
	C285.288971,96.921906 282.646942,96.921906 278.479950,96.921906 
	C281.950623,93.740425 284.634613,91.280098 287.654968,88.708176 
	C288.002686,91.068695 288.014069,93.540802 287.978210,96.467407 
z"/>
</svg>