<svg id="visual" viewBox="0 0 1000 100" width="1000" height="100" xmlns="http://www.w3.org/2000/svg" xmlns:xlink="http://www.w3.org/1999/xlink" version="1.1"><path d="M0 24L67 24L67 44L133 44L133 50L200 50L200 71L267 71L267 79L333 79L333 39L400 39L400 53L467 53L467 28L533 28L533 31L600 31L600 46L667 46L667 20L733 20L733 69L800 69L800 23L867 23L867 52L933 52L933 58L1000 58L1000 41L1000 101L1000 101L933 101L933 101L867 101L867 101L800 101L800 101L733 101L733 101L667 101L667 101L600 101L600 101L533 101L533 101L467 101L467 101L400 101L400 101L333 101L333 101L267 101L267 101L200 101L200 101L133 101L133 101L67 101L67 101L0 101Z" fill="#09090B"></path></svg>